<svg xmlns="http://www.w3.org/2000/svg" viewBox="0 0 1000 1000" fill="none">
<g opacity="0.85">
  <!-- Main vine paths -->
  <path d="M50,50 Q100,30 200,45 Q300,55 400,40 Q500,25 600,42 Q700,55 800,38 Q900,28 950,50" stroke="currentColor" stroke-width="2" fill="none"/>
  <path d="M950,50 Q970,100 955,200 Q945,300 960,400 Q970,500 955,600 Q940,700 960,800 Q975,900 950,950" stroke="currentColor" stroke-width="2" fill="none"/>
  <path d="M950,950 Q900,970 800,955 Q700,945 600,960 Q500,970 400,955 Q300,940 200,960 Q100,975 50,950" stroke="currentColor" stroke-width="2" fill="none"/>
  <path d="M50,950 Q30,900 45,800 Q55,700 40,600 Q25,500 42,400 Q55,300 38,200 Q28,100 50,50" stroke="currentColor" stroke-width="2" fill="none"/>
  
  <!-- Top leaves -->
  <path d="M120,42 Q130,15 155,20 Q140,35 120,42Z" fill="currentColor" opacity="0.6"/>
  <path d="M125,45 Q115,20 95,28 Q110,40 125,45Z" fill="currentColor" opacity="0.5"/>
  <path d="M250,48 Q265,22 290,30 Q275,42 250,48Z" fill="currentColor" opacity="0.65"/>
  <path d="M255,50 Q240,25 220,35 Q235,45 255,50Z" fill="currentColor" opacity="0.5"/>
  <path d="M380,38 Q395,12 420,20 Q405,33 380,38Z" fill="currentColor" opacity="0.6"/>
  <path d="M385,42 Q370,18 350,28 Q365,38 385,42Z" fill="currentColor" opacity="0.55"/>
  <path d="M520,32 Q535,5 560,15 Q545,28 520,32Z" fill="currentColor" opacity="0.6"/>
  <path d="M525,38 Q510,12 490,22 Q505,35 525,38Z" fill="currentColor" opacity="0.5"/>
  <path d="M650,45 Q665,18 690,28 Q675,40 650,45Z" fill="currentColor" opacity="0.65"/>
  <path d="M655,48 Q640,22 620,32 Q635,42 655,48Z" fill="currentColor" opacity="0.5"/>
  <path d="M780,36 Q795,10 820,18 Q805,30 780,36Z" fill="currentColor" opacity="0.6"/>
  <path d="M785,40 Q770,15 750,25 Q765,38 785,40Z" fill="currentColor" opacity="0.55"/>
  <path d="M880,42 Q895,15 920,22 Q905,35 880,42Z" fill="currentColor" opacity="0.6"/>
  
  <!-- Right leaves -->
  <path d="M958,120 Q985,130 980,155 Q965,140 958,120Z" fill="currentColor" opacity="0.6"/>
  <path d="M955,125 Q980,115 975,95 Q960,110 955,125Z" fill="currentColor" opacity="0.5"/>
  <path d="M952,250 Q978,265 970,290 Q957,275 952,250Z" fill="currentColor" opacity="0.65"/>
  <path d="M955,255 Q980,240 972,220 Q958,235 955,255Z" fill="currentColor" opacity="0.5"/>
  <path d="M962,380 Q988,395 980,420 Q967,405 962,380Z" fill="currentColor" opacity="0.6"/>
  <path d="M958,385 Q982,370 975,350 Q962,365 958,385Z" fill="currentColor" opacity="0.55"/>
  <path d="M957,520 Q983,535 975,560 Q962,545 957,520Z" fill="currentColor" opacity="0.6"/>
  <path d="M955,650 Q982,665 975,690 Q960,675 955,650Z" fill="currentColor" opacity="0.65"/>
  <path d="M962,780 Q988,795 980,820 Q967,805 962,780Z" fill="currentColor" opacity="0.6"/>
  <path d="M955,880 Q982,895 975,920 Q960,905 955,880Z" fill="currentColor" opacity="0.6"/>
  
  <!-- Bottom leaves (mirrored) -->
  <path d="M880,958 Q895,985 870,980 Q878,965 880,958Z" fill="currentColor" opacity="0.6"/>
  <path d="M750,962 Q765,988 740,980 Q748,967 750,962Z" fill="currentColor" opacity="0.55"/>
  <path d="M620,955 Q635,982 610,975 Q618,960 620,955Z" fill="currentColor" opacity="0.65"/>
  <path d="M490,960 Q505,985 480,978 Q488,963 490,960Z" fill="currentColor" opacity="0.6"/>
  <path d="M360,958 Q375,982 350,976 Q358,962 360,958Z" fill="currentColor" opacity="0.55"/>
  <path d="M230,962 Q245,988 220,980 Q228,965 230,962Z" fill="currentColor" opacity="0.6"/>
  <path d="M120,955 Q135,980 110,975 Q118,960 120,955Z" fill="currentColor" opacity="0.6"/>
  
  <!-- Left leaves -->
  <path d="M42,880 Q15,895 20,870 Q35,878 42,880Z" fill="currentColor" opacity="0.6"/>
  <path d="M38,750 Q12,765 18,740 Q30,748 38,750Z" fill="currentColor" opacity="0.55"/>
  <path d="M45,620 Q18,635 22,610 Q35,618 45,620Z" fill="currentColor" opacity="0.65"/>
  <path d="M40,490 Q15,505 20,480 Q33,488 40,490Z" fill="currentColor" opacity="0.6"/>
  <path d="M42,360 Q18,375 22,350 Q35,358 42,360Z" fill="currentColor" opacity="0.55"/>
  <path d="M38,230 Q12,245 18,220 Q30,228 38,230Z" fill="currentColor" opacity="0.6"/>
  <path d="M42,120 Q15,135 20,110 Q35,118 42,120Z" fill="currentColor" opacity="0.6"/>
  
  <!-- Small berries/dots along vines -->
  <circle cx="170" cy="43" r="3.5" fill="currentColor" opacity="0.7"/>
  <circle cx="320" cy="47" r="3" fill="currentColor" opacity="0.6"/>
  <circle cx="460" cy="35" r="3.5" fill="currentColor" opacity="0.7"/>
  <circle cx="590" cy="40" r="3" fill="currentColor" opacity="0.6"/>
  <circle cx="720" cy="48" r="3.5" fill="currentColor" opacity="0.7"/>
  <circle cx="850" cy="35" r="3" fill="currentColor" opacity="0.6"/>
  <circle cx="957" cy="170" r="3.5" fill="currentColor" opacity="0.7"/>
  <circle cx="960" cy="320" r="3" fill="currentColor" opacity="0.6"/>
  <circle cx="955" cy="460" r="3.5" fill="currentColor" opacity="0.7"/>
  <circle cx="958" cy="590" r="3" fill="currentColor" opacity="0.6"/>
  <circle cx="960" cy="720" r="3.5" fill="currentColor" opacity="0.7"/>
  <circle cx="955" cy="850" r="3" fill="currentColor" opacity="0.6"/>
</g>
</svg>