<svg xmlns="http://www.w3.org/2000/svg" viewBox="0 0 1000 1000" fill="none">
<g opacity="0.8">
  <!-- Top floral arrangement -->
  <g transform="translate(100,0)">
    <path d="M0,60 Q50,20 120,40 Q180,55 250,35 Q330,15 400,40 Q470,60 540,38 Q610,15 680,42 Q740,58 800,40" stroke="currentColor" stroke-width="1.5" fill="none"/>
    <!-- Leaves cluster top -->
    <path d="M50,40 Q60,10 85,18 Q70,32 50,40Z" fill="currentColor" opacity="0.5"/>
    <path d="M55,42 Q40,15 25,25 Q38,38 55,42Z" fill="currentColor" opacity="0.4"/>
    <path d="M150,35 Q165,8 190,18 Q175,30 150,35Z" fill="currentColor" opacity="0.55"/>
    <path d="M155,38 Q140,12 125,22 Q140,35 155,38Z" fill="currentColor" opacity="0.4"/>
    <path d="M280,30 Q298,5 320,15 Q305,28 280,30Z" fill="currentColor" opacity="0.5"/>
    <path d="M350,38 Q368,12 390,20 Q375,33 350,38Z" fill="currentColor" opacity="0.55"/>
    <path d="M480,35 Q498,8 520,18 Q505,30 480,35Z" fill="currentColor" opacity="0.5"/>
    <path d="M580,40 Q598,15 620,22 Q605,35 580,40Z" fill="currentColor" opacity="0.55"/>
    <path d="M700,38 Q718,10 740,20 Q725,33 700,38Z" fill="currentColor" opacity="0.5"/>
    <!-- Flowers -->
    <circle cx="100" cy="30" r="12" fill="currentColor" opacity="0.15"/>
    <circle cx="100" cy="30" r="7" fill="currentColor" opacity="0.25"/>
    <circle cx="100" cy="30" r="3" fill="currentColor" opacity="0.5"/>
    <circle cx="300" cy="22" r="10" fill="currentColor" opacity="0.15"/>
    <circle cx="300" cy="22" r="6" fill="currentColor" opacity="0.25"/>
    <circle cx="300" cy="22" r="2.5" fill="currentColor" opacity="0.5"/>
    <circle cx="500" cy="28" r="11" fill="currentColor" opacity="0.15"/>
    <circle cx="500" cy="28" r="6.5" fill="currentColor" opacity="0.25"/>
    <circle cx="500" cy="28" r="3" fill="currentColor" opacity="0.5"/>
    <circle cx="650" cy="35" r="9" fill="currentColor" opacity="0.15"/>
    <circle cx="650" cy="35" r="5" fill="currentColor" opacity="0.25"/>
    <circle cx="650" cy="35" r="2" fill="currentColor" opacity="0.5"/>
  </g>
  <!-- Bottom floral arrangement (mirrored) -->
  <g transform="translate(100,940) scale(1,-1)">
    <path d="M0,60 Q50,20 120,40 Q180,55 250,35 Q330,15 400,40 Q470,60 540,38 Q610,15 680,42 Q740,58 800,40" stroke="currentColor" stroke-width="1.5" fill="none"/>
    <path d="M50,40 Q60,10 85,18 Q70,32 50,40Z" fill="currentColor" opacity="0.5"/>
    <path d="M55,42 Q40,15 25,25 Q38,38 55,42Z" fill="currentColor" opacity="0.4"/>
    <path d="M150,35 Q165,8 190,18 Q175,30 150,35Z" fill="currentColor" opacity="0.55"/>
    <path d="M280,30 Q298,5 320,15 Q305,28 280,30Z" fill="currentColor" opacity="0.5"/>
    <path d="M480,35 Q498,8 520,18 Q505,30 480,35Z" fill="currentColor" opacity="0.5"/>
    <path d="M700,38 Q718,10 740,20 Q725,33 700,38Z" fill="currentColor" opacity="0.5"/>
    <circle cx="100" cy="30" r="12" fill="currentColor" opacity="0.15"/>
    <circle cx="100" cy="30" r="7" fill="currentColor" opacity="0.25"/>
    <circle cx="300" cy="22" r="10" fill="currentColor" opacity="0.15"/>
    <circle cx="300" cy="22" r="6" fill="currentColor" opacity="0.25"/>
    <circle cx="500" cy="28" r="11" fill="currentColor" opacity="0.15"/>
    <circle cx="500" cy="28" r="6.5" fill="currentColor" opacity="0.25"/>
  </g>
  <!-- Thin side lines -->
  <line x1="80" y1="80" x2="80" y2="920" stroke="currentColor" stroke-width="0.5" opacity="0.2"/>
  <line x1="920" y1="80" x2="920" y2="920" stroke="currentColor" stroke-width="0.5" opacity="0.2"/>
</g>
</svg>